D:\school\WTK\thesis\model\3dpredictsim\Results\Batchsim_tmt_linear_v2\Pog_s1_tmt_bCst_d02_k800_ig24_pas_GRF.mot
nRows=25
nColumns=19

name D:\school\WTK\thesis\model\3dpredictsim\Results\Batchsim_tmt_linear_v2\Pog_s1_tmt_bCst_d02_k800_ig24_pas_GRF.mot
datacolumns 19
datarows 25
range 0.5411481063 0.8008991973
endheader
time 	ground_force_vx	ground_force_vy	ground_force_vz	ground_force_px	ground_force_py	ground_force_pz	1_ground_force_vx	1_ground_force_vy	1_ground_force_vz	1_ground_force_px	1_ground_force_py	1_ground_force_pz	ground_torque_x	ground_torque_y	ground_torque_z	1_ground_torque_x	1_ground_torque_y	1_ground_torque_z
        0.5411481063	      110.7026959971	      463.3800329035	       -2.3660705283	        0.3250144162	        0.0000000000	        0.0468397528	      -79.3403498839	       61.0162065708	      -17.6047825435	        0.8360181053	        0.0000000000	       -0.0454457013	        0.0000000000	        0.0000000000	        0.0000000000	        0.0000000000	        0.0000000000	        0.0000000000	
        0.5519710684	       76.8801544583	      362.7208712360	        3.7923685237	        0.3396327820	        0.0000000000	        0.0445265755	     -138.9608834584	      140.9233466933	      -45.5922021979	        0.8440815921	        0.0000000000	       -0.0438945321	        0.0000000000	        0.0000000000	        0.0000000000	        0.0000000000	        0.0000000000	        0.0000000000	
        0.5627940305	       39.6630122660	      257.6113078465	        7.3247837611	        0.3632490940	        0.0000000000	        0.0402346703	      -62.7725524643	      293.7753436576	      -19.0399462809	        0.8506716825	        0.0000000000	       -0.0424214150	        0.0000000000	        0.0000000000	        0.0000000000	        0.0000000000	        0.0000000000	        0.0000000000	
        0.5736169926	       12.1929408527	      174.0482715777	        8.4176794895	        0.3945390943	        0.0000000000	        0.0328777205	      -62.2176290009	      481.6296294092	        0.0373524279	        0.8556612529	        0.0000000000	       -0.0430387567	        0.0000000000	        0.0000000000	        0.0000000000	        0.0000000000	        0.0000000000	        0.0000000000	
        0.5844399548	       -0.3358651023	      140.3675215507	       11.3127604021	        0.4040907876	        0.0000000000	        0.0298196554	     -102.4758443854	      725.1445613807	       11.4214666323	        0.8656617554	        0.0000000000	       -0.0459669300	        0.0000000000	        0.0000000000	        0.0000000000	        0.0000000000	        0.0000000000	        0.0000000000	
        0.5952629169	       -0.9441485361	      106.8466219727	       12.2720139983	        0.4046393845	        0.0000000000	        0.0299893732	     -129.1508684210	      890.3480376725	       17.7093659312	        0.8727245069	        0.0000000000	       -0.0479559015	        0.0000000000	        0.0000000000	        0.0000000000	        0.0000000000	        0.0000000000	        0.0000000000	
        0.6060858790	       -3.8769012556	       69.0623230319	       11.7259050565	        0.4051156946	        0.0000000000	        0.0301352405	     -133.1878237037	      937.5085417037	       19.1880038634	        0.8775685817	        0.0000000000	       -0.0491996475	        0.0000000000	        0.0000000000	        0.0000000000	        0.0000000000	        0.0000000000	        0.0000000000	
        0.6169088411	       -8.4605093530	       28.6477491442	        6.3307819732	        0.4047751723	        0.0000000000	        0.0299698901	     -124.4621436291	      909.9526720132	       18.6794655418	        0.8813752630	        0.0000000000	       -0.0500553231	        0.0000000000	        0.0000000000	        0.0000000000	        0.0000000000	        0.0000000000	        0.0000000000	
        0.6277318033	        0.1561184468	       -0.1563819134	       -0.0122272273	        0.0000000000	        0.0000000000	        0.0000000000	     -110.8006171764	      862.7866225621	       17.5369824524	        0.8850599967	        0.0000000000	       -0.0506932838	        0.0000000000	        0.0000000000	        0.0000000000	        0.0000000000	        0.0000000000	        0.0000000000	
        0.6385547654	        0.0003665132	       -0.0003016745	        0.0000046081	        0.0000000000	        0.0000000000	        0.0000000000	      -97.9996985791	      821.6383818315	       17.2870602664	        0.8894166171	        0.0000000000	       -0.0514129476	        0.0000000000	        0.0000000000	        0.0000000000	        0.0000000000	        0.0000000000	        0.0000000000	
        0.6493777275	        0.0001567042	       -0.0001123566	        0.0000048977	        0.0000000000	        0.0000000000	        0.0000000000	      -90.5451503781	      794.0205068280	       17.6589977443	        0.8952683090	        0.0000000000	       -0.0518383483	        0.0000000000	        0.0000000000	        0.0000000000	        0.0000000000	        0.0000000000	        0.0000000000	
        0.6602006896	        0.0012032437	       -0.0007731024	        0.0000475210	        0.0000000000	        0.0000000000	        0.0000000000	      -82.0242290394	      760.7974582781	       17.3076225540	        0.9013307351	        0.0000000000	       -0.0519707639	        0.0000000000	        0.0000000000	        0.0000000000	        0.0000000000	        0.0000000000	        0.0000000000	
        0.6710236518	        0.0082180100	       -0.0048370064	        0.0003583250	        0.0000000000	        0.0000000000	        0.0000000000	      -73.6799355497	      723.0976921176	       16.9313893488	        0.9072062659	        0.0000000000	       -0.0520049528	        0.0000000000	        0.0000000000	        0.0000000000	        0.0000000000	        0.0000000000	        0.0000000000	
        0.6818466139	       -0.0558436148	        0.0306035709	       -0.0025715035	        0.0000000000	        0.0000000000	        0.0000000000	      -65.7079917550	      689.7115946752	       16.6407896706	        0.9130028454	        0.0000000000	       -0.0519322332	        0.0000000000	        0.0000000000	        0.0000000000	        0.0000000000	        0.0000000000	        0.0000000000	
        0.6926695760	       -0.0395456907	        0.0204000060	       -0.0018935975	        0.0000000000	        0.0000000000	        0.0000000000	      -58.1529082372	      662.9988197690	       16.7716281746	        0.9185974192	        0.0000000000	       -0.0518485784	        0.0000000000	        0.0000000000	        0.0000000000	        0.0000000000	        0.0000000000	        0.0000000000	
        0.7034925381	       -0.0277490438	        0.0135891567	       -0.0013675628	        0.0000000000	        0.0000000000	        0.0000000000	      -51.2401395405	      642.2358130746	       17.1697466215	        0.9238894768	        0.0000000000	       -0.0517545107	        0.0000000000	        0.0000000000	        0.0000000000	        0.0000000000	        0.0000000000	        0.0000000000	
        0.7143155003	       -0.0241918130	        0.0113188848	       -0.0012167095	        0.0000000000	        0.0000000000	        0.0000000000	      -44.8552288119	      626.4227861652	       17.4710304557	        0.9288937801	        0.0000000000	       -0.0516456221	        0.0000000000	        0.0000000000	        0.0000000000	        0.0000000000	        0.0000000000	        0.0000000000	
        0.7251384624	       -0.0271996699	        0.0122232752	       -0.0013896247	        0.0000000000	        0.0000000000	        0.0000000000	      -40.3165043055	      615.2108409372	       18.0805191477	        0.9335807912	        0.0000000000	       -0.0515071596	        0.0000000000	        0.0000000000	        0.0000000000	        0.0000000000	        0.0000000000	        0.0000000000	
        0.7359614245	       -0.0381615348	        0.0165560157	       -0.0019838677	        0.0000000000	        0.0000000000	        0.0000000000	      -36.4300580049	      607.6536552908	       18.8900689664	        0.9379565700	        0.0000000000	       -0.0513410955	        0.0000000000	        0.0000000000	        0.0000000000	        0.0000000000	        0.0000000000	        0.0000000000	
        0.7467843866	       -0.0629835427	        0.0265048907	       -0.0033381472	        0.0000000000	        0.0000000000	        0.0000000000	      -32.7938054761	      601.7635896645	       19.8361910912	        0.9420438837	        0.0000000000	       -0.0511520148	        0.0000000000	        0.0000000000	        0.0000000000	        0.0000000000	        0.0000000000	        0.0000000000	
        0.7576073488	       -0.1142973662	        0.0468478840	       -0.0061707036	        0.0000000000	        0.0000000000	        0.0000000000	      -29.2980029846	      596.2329250194	       20.3652911145	        0.9458140061	        0.0000000000	       -0.0509623896	        0.0000000000	        0.0000000000	        0.0000000000	        0.0000000000	        0.0000000000	        0.0000000000	
        0.7684303109	       -0.2132279482	        0.0854434184	       -0.0116551519	        0.0000000000	        0.0000000000	        0.0000000000	      -25.8764095754	      590.5887684294	       20.5629035249	        0.9492833939	        0.0000000000	       -0.0507810564	        0.0000000000	        0.0000000000	        0.0000000000	        0.0000000000	        0.0000000000	        0.0000000000	
        0.7792532730	       -0.3859988520	        0.1517732159	       -0.0212483621	        0.0000000000	        0.0000000000	        0.0000000000	      -22.4601222113	      584.0954216317	       20.6547335822	        0.9524532977	        0.0000000000	       -0.0506050138	        0.0000000000	        0.0000000000	        0.0000000000	        0.0000000000	        0.0000000000	        0.0000000000	
        0.7900762352	       -0.6556086047	        0.2536399008	       -0.0362013282	        0.0000000000	        0.0000000000	        0.0000000000	      -18.8113080221	      576.6513028885	       20.5024572655	        0.9553592749	        0.0000000000	       -0.0504403361	        0.0000000000	        0.0000000000	        0.0000000000	        0.0000000000	        0.0000000000	        0.0000000000	
        0.8008991973	       -1.0345027129	        0.3945537998	       -0.0571322916	        0.0000000000	        0.0000000000	        0.0000000000	      -15.0470685961	      568.5237203281	       20.2558834040	        0.9580082731	        0.0000000000	       -0.0502796053	        0.0000000000	        0.0000000000	        0.0000000000	        0.0000000000	        0.0000000000	        0.0000000000	
